name ./resultDataOpenSim/trcMotMarkerGrf/sub10/grf-02-01.mot
datacolumns 19
datarows 20
range 0.92000000 0.99600000
endheader

                time	     ground_force_vx	     ground_force_vy	     ground_force_vz	     ground_force_px	     ground_force_py	     ground_force_pz	   l_ground_force_vx	   l_ground_force_vy	   l_ground_force_vz	   l_ground_force_px	   l_ground_force_py	   l_ground_force_pz	     ground_torque_x	     ground_torque_y	     ground_torque_z	   l_ground_torque_x	   l_ground_torque_y	   l_ground_torque_z	
          0.92000000	          0.00000000	          0.00000000	          0.00000000	          0.00000000	          0.00000000	          0.00000000	        -35.02037002	        473.32659015	         29.75754170	          0.07066140	         -0.02500000	         -0.11172149	          0.00000000	          0.00000000	          0.00000000	          0.00000000	         -1.81576028	          0.00000000	
          0.92400000	          0.00000000	          0.00000000	          0.00000000	          0.00000000	          0.00000000	          0.00000000	        -33.18871573	        461.93825555	         28.94544158	          0.07390872	         -0.02500000	         -0.11159768	          0.00000000	          0.00000000	          0.00000000	          0.00000000	         -1.72375737	          0.00000000	
          0.92800000	          0.00000000	          0.00000000	          0.00000000	          0.00000000	          0.00000000	          0.00000000	        -31.41107357	        451.47265971	         28.07790021	          0.07696362	         -0.02500000	         -0.11142036	          0.00000000	          0.00000000	          0.00000000	          0.00000000	         -1.63508184	          0.00000000	
          0.93200000	          0.00000000	          0.00000000	          0.00000000	          0.00000000	          0.00000000	          0.00000000	        -29.72521462	        441.75496732	         27.14608696	          0.07977042	         -0.02500000	         -0.11124828	          0.00000000	          0.00000000	          0.00000000	          0.00000000	         -1.55744198	          0.00000000	
          0.93600000	          0.00000000	          0.00000000	          0.00000000	          0.00000000	          0.00000000	          0.00000000	        -28.15743215	        432.61232392	         26.13571087	          0.08232223	         -0.02500000	         -0.11113887	          0.00000000	          0.00000000	          0.00000000	          0.00000000	         -1.49701299	          0.00000000	
          0.94000000	          0.00000000	          0.00000000	          0.00000000	          0.00000000	          0.00000000	          0.00000000	        -26.69007966	        423.95610296	         25.04713033	          0.08467544	         -0.02500000	         -0.11109411	          0.00000000	          0.00000000	          0.00000000	          0.00000000	         -1.45690358	          0.00000000	
          0.94400000	          0.00000000	          0.00000000	          0.00000000	          0.00000000	          0.00000000	          0.00000000	        -25.26731309	        415.80910042	         23.91774678	          0.08687858	         -0.02500000	         -0.11108543	          0.00000000	          0.00000000	          0.00000000	          0.00000000	         -1.43639567	          0.00000000	
          0.94800000	          0.00000000	          0.00000000	          0.00000000	          0.00000000	          0.00000000	          0.00000000	        -23.82963473	        408.27763263	         22.82005196	          0.08893753	         -0.02500000	         -0.11108606	          0.00000000	          0.00000000	          0.00000000	          0.00000000	         -1.43126381	          0.00000000	
          0.95200000	          0.00000000	          0.00000000	          0.00000000	          0.00000000	          0.00000000	          0.00000000	        -22.34881139	        401.48349121	         21.82672037	          0.09081241	         -0.02500000	         -0.11108681	          0.00000000	          0.00000000	          0.00000000	          0.00000000	         -1.43500681	          0.00000000	
          0.95600000	          0.00000000	          0.00000000	          0.00000000	          0.00000000	          0.00000000	          0.00000000	        -20.83523373	        395.48320932	         20.97697452	          0.09242384	         -0.02500000	         -0.11110863	          0.00000000	          0.00000000	          0.00000000	          0.00000000	         -1.44044393	          0.00000000	
          0.96000000	          0.00000000	          0.00000000	          0.00000000	          0.00000000	          0.00000000	          0.00000000	        -19.31059485	        390.24805578	         20.28316594	          0.09371097	         -0.02500000	         -0.11118780	          0.00000000	          0.00000000	          0.00000000	          0.00000000	         -1.44115356	          0.00000000	
          0.96400000	          0.00000000	          0.00000000	          0.00000000	          0.00000000	          0.00000000	          0.00000000	        -17.77046780	        385.73236805	         19.76141623	          0.09469717	         -0.02500000	         -0.11133013	          0.00000000	          0.00000000	          0.00000000	          0.00000000	         -1.43262989	          0.00000000	
          0.96800000	          0.00000000	          0.00000000	          0.00000000	          0.00000000	          0.00000000	          0.00000000	        -16.17404871	        381.94827808	         19.44362328	          0.09547362	         -0.02500000	         -0.11149438	          0.00000000	          0.00000000	          0.00000000	          0.00000000	         -1.41329746	          0.00000000	
          0.97200000	          0.00000000	          0.00000000	          0.00000000	          0.00000000	          0.00000000	          0.00000000	        -14.46854081	        378.96606694	         19.35804457	          0.09612878	         -0.02500000	         -0.11162659	          0.00000000	          0.00000000	          0.00000000	          0.00000000	         -1.38530498	          0.00000000	
          0.97600000	          0.00000000	          0.00000000	          0.00000000	          0.00000000	          0.00000000	          0.00000000	        -12.61518544	        376.87438038	         19.49679143	          0.09671078	         -0.02500000	         -0.11168181	          0.00000000	          0.00000000	          0.00000000	          0.00000000	         -1.35465678	          0.00000000	
          0.98000000	          0.00000000	          0.00000000	          0.00000000	          0.00000000	          0.00000000	          0.00000000	        -10.58960040	        375.76634543	         19.79814136	          0.09723911	         -0.02500000	         -0.11162689	          0.00000000	          0.00000000	          0.00000000	          0.00000000	         -1.33029539	          0.00000000	
          0.98400000	          0.00000000	          0.00000000	          0.00000000	          0.00000000	          0.00000000	          0.00000000	         -8.37200962	        375.73490555	         20.16009271	          0.09773815	         -0.02500000	         -0.11144474	          0.00000000	          0.00000000	          0.00000000	          0.00000000	         -1.32225249	          0.00000000	
          0.98800000	          0.00000000	          0.00000000	          0.00000000	          0.00000000	          0.00000000	          0.00000000	         -5.95586670	        376.83846177	         20.47967719	          0.09823072	         -0.02500000	         -0.11114127	          0.00000000	          0.00000000	          0.00000000	          0.00000000	         -1.33944200	          0.00000000	
          0.99200000	          0.00000000	          0.00000000	          0.00000000	          0.00000000	          0.00000000	          0.00000000	         -3.36253474	        379.06675089	         20.69531624	          0.09871030	         -0.02500000	         -0.11074863	          0.00000000	          0.00000000	          0.00000000	          0.00000000	         -1.38775941	          0.00000000	
          0.99600000	          0.00000000	          0.00000000	          0.00000000	          0.00000000	          0.00000000	          0.00000000	         -0.63032155	        382.34737610	         20.81166147	          0.09913644	         -0.02500000	         -0.11032155	          0.00000000	          0.00000000	          0.00000000	          0.00000000	         -1.46902101	          0.00000000	
